<svg xmlns="http://www.w3.org/2000/svg" width="31" height="20" viewBox="0 0 31 20">
    <g fill="none" fill-rule="evenodd">
        <g fill="#000" fill-rule="nonzero">
            <path d="M12.826 15.276c-1.308 0-2.371 1.054-2.371 2.35s1.063 2.35 2.37 2.35c1.308 0 2.371-1.054 2.371-2.35s-1.063-2.35-2.37-2.35zm0 3.916c-.872 0-1.58-.702-1.58-1.566 0-.864.708-1.567 1.58-1.567.871 0 1.58.703 1.58 1.567s-.709 1.566-1.58 1.566zM26.259 15.276c-1.308 0-2.37 1.054-2.37 2.35s1.062 2.35 2.37 2.35c1.307 0 2.37-1.054 2.37-2.35s-1.063-2.35-2.37-2.35zm0 3.916c-.872 0-1.58-.702-1.58-1.566 0-.864.708-1.567 1.58-1.567.871 0 1.58.703 1.58 1.567s-.709 1.566-1.58 1.566z"/>
            <path d="M30.937 13.106l-3.556-5.483a.396.396 0 0 0-.332-.18h-4.346a.393.393 0 0 0-.395.392v9.79c0 .217.176.392.395.392h1.58v-.783h-1.185V8.227h3.735l3.377 5.206v3.801h-1.976v.783h2.37a.393.393 0 0 0 .396-.391v-4.308a.388.388 0 0 0-.063-.212z"/>
            <path d="M22.703 4.702H7.689a.394.394 0 0 0-.395.392v12.532c0 .216.177.391.395.391h3.161v-.783H8.084V5.485h14.224v11.75H14.8v.782h7.902a.393.393 0 0 0 .395-.391V5.094a.393.393 0 0 0-.395-.392zM.669 16.444H6.2v1H.669zM2.553 14.667H6.2v1H2.553z"/>
        </g>
        <circle cx="8.5" cy="5.5" r="5.5" fill="#5BCF96"/>
        <path fill="#FFF" fill-rule="nonzero" d="M11.423 3L7.296 6.917 5.577 5.286 5 5.833l2.007 1.905.289.262.288-.262L12 3.548z"/>
    </g>
</svg>
